<?xml version="1.0" encoding="utf-8"?>
<svg xmlns="http://www.w3.org/2000/svg" width="24" height="24" viewBox="0 0 24 24">

    <path
        fill="#000000"
        d="M12.252,18.506C12.885,18.462 13.512,18.361 14.127,18.204C14.886,18.432 15.687,18.483 16.469,18.354C16.5,18.351 16.532,18.348 16.563,18.347C16.842,18.347 17.208,18.507 17.742,18.844V18.291C17.742,18.194 17.768,18.099 17.818,18.016C17.867,17.933 17.937,17.865 18.022,17.819C18.255,17.687 18.47,17.539 18.667,17.375C19.445,16.726 19.884,15.858 19.884,14.939C19.884,14.637 19.836,14.335 19.741,14.047C19.977,13.613 20.165,13.16 20.305,12.688C20.755,13.352 20.997,14.137 21,14.939C21,16.188 20.412,17.351 19.393,18.202C19.222,18.344 19.044,18.475 18.858,18.594V19.892C18.858,20.338 18.336,20.596 17.968,20.33C17.619,20.073 17.259,19.833 16.888,19.61C16.781,19.548 16.67,19.493 16.556,19.444C16.246,19.49 15.934,19.513 15.621,19.514C14.351,19.514 13.177,19.136 12.252,18.506ZM5.531,15.91C3.927,14.568 3,12.736 3,10.774C3,6.767 6.832,3.562 11.511,3.562C16.191,3.562 20.024,6.766 20.024,10.774C20.024,14.783 16.191,17.986 11.511,17.986C10.985,17.986 10.467,17.947 9.956,17.867C9.736,17.917 8.854,18.434 7.584,19.35C7.124,19.681 6.472,19.361 6.472,18.802V16.59C6.143,16.386 5.828,16.159 5.532,15.91M9.987,16.501C10.026,16.501 10.065,16.504 10.104,16.51C10.564,16.587 11.033,16.625 11.511,16.625C15.464,16.625 18.627,13.981 18.627,10.774C18.627,7.568 15.464,4.923 11.512,4.923C7.56,4.923 4.395,7.57 4.395,10.774C4.395,12.325 5.135,13.785 6.441,14.877C6.77,15.152 7.129,15.399 7.517,15.618C7.622,15.676 7.71,15.761 7.772,15.865C7.833,15.968 7.866,16.086 7.867,16.206V17.483C8.872,16.817 9.533,16.501 9.987,16.501Z"/>
    <path
        fill="#000000"
        d="M8.062,12C8.36,12 8.646,11.882 8.857,11.67C9.068,11.46 9.187,11.173 9.187,10.875C9.187,10.577 9.068,10.29 8.857,10.08C8.646,9.869 8.36,9.75 8.062,9.75C7.763,9.75 7.477,9.869 7.266,10.08C7.055,10.29 6.937,10.577 6.937,10.875C6.937,11.173 7.055,11.46 7.266,11.67C7.477,11.882 7.763,12 8.062,12ZM11.719,12C12.017,12 12.303,11.882 12.514,11.67C12.725,11.46 12.844,11.173 12.844,10.875C12.844,10.577 12.725,10.29 12.514,10.08C12.303,9.869 12.017,9.75 11.719,9.75C11.42,9.75 11.134,9.869 10.923,10.08C10.712,10.29 10.594,10.577 10.594,10.875C10.594,11.173 10.712,11.46 10.923,11.67C11.134,11.882 11.42,12 11.719,12ZM15.375,12C15.673,12 15.959,11.882 16.17,11.67C16.381,11.46 16.5,11.173 16.5,10.875C16.5,10.577 16.381,10.29 16.17,10.08C15.959,9.869 15.673,9.75 15.375,9.75C15.076,9.75 14.79,9.869 14.579,10.08C14.368,10.29 14.25,10.577 14.25,10.875C14.25,11.173 14.368,11.46 14.579,11.67C14.79,11.882 15.076,12 15.375,12Z"/>

</svg>